<!DOCTYPE svg PUBLIC "-//W3C//DTD SVG 1.1//EN" "http://www.w3.org/Graphics/SVG/1.1/DTD/svg11.dtd">
<!-- Uploaded to: SVG Repo, www.svgrepo.com, Transformed by: SVG Repo Mixer Tools -->
<svg fill="#1C274C" height="100px" width="100px" version="1.1" id="Layer_1" xmlns="http://www.w3.org/2000/svg" xmlns:xlink="http://www.w3.org/1999/xlink" viewBox="0 0 512 512" xml:space="preserve">
<g id="SVGRepo_bgCarrier" stroke-width="0"/>
<g id="SVGRepo_tracerCarrier" stroke-linecap="round" stroke-linejoin="round"/>
<g id="SVGRepo_iconCarrier"> <g> <g> <path d="M448,202.667h-88.448c1.835-6.955,3.115-14.059,3.115-21.333c0-47.061-38.272-85.333-85.333-85.333 c0-47.061-38.272-85.333-85.333-85.333S106.667,48.939,106.667,96c0,0.896,0.021,1.792,0.043,2.688 c-36.8,9.472-64.043,42.944-64.043,82.645c0,8.235,1.557,16.256,3.883,24.064C19.776,213.035,0,237.461,0,266.667 c0,28.203,18.453,51.925,43.819,60.437c7.125,59.605,49.408,108.501,105.515,125.269V480c0,11.776,9.536,21.333,21.333,21.333 c11.797,0,21.333-9.557,21.333-21.333v-21.333h128V480c0,11.776,9.536,21.333,21.333,21.333c11.797,0,21.333-9.557,21.333-21.333 v-27.627c56.107-16.768,98.389-65.664,105.515-125.269C493.547,318.592,512,294.869,512,266.667 C512,231.381,483.285,202.667,448,202.667z M448,288H64c-11.776,0-21.333-9.579-21.333-21.333 c0-11.755,9.557-21.333,21.333-21.333h16.597h244.139H448c11.776,0,21.333,9.579,21.333,21.333 C469.333,278.421,459.776,288,448,288z"/> </g> </g> </g>
</svg>